<svg width="2560" height="953" viewBox="0 0 2560 953" fill="none" xmlns="http://www.w3.org/2000/svg">
<path fill-rule="evenodd" clip-rule="evenodd" d="M-3 466.993C-3 466.993 214.489 684.993 533 684.993C851.511 684.993 949.24 440.442 1306.56 466.799C1663.87 493.155 1851.36 628.49 2160.2 648.799C2760.87 688.299 3184 556.299 3184 556.299L3022.5 803.5L-97 738L-3 466.993Z" fill="white" fill-opacity="0.21"/>
<path fill-rule="evenodd" clip-rule="evenodd" d="M3174.23 370.54C3174.23 370.54 2986.07 613.83 2668 630.5C2349.93 647.17 2340.4 504.324 1984.96 549.345C1629.51 594.366 1631.76 672.69 1324.41 709.134C1188.49 725.252 925.969 338.479 412.841 559.637C-100.288 780.796 -948.488 216.413 -948.488 216.413L-226.5 711L3174 738L3174.23 370.54Z" fill="white" fill-opacity="0.2"/>
<path fill-rule="evenodd" clip-rule="evenodd" d="M-3 544.299C-3 544.299 61.7266 689.799 342.5 689.799C623.273 689.799 698.018 481.442 1013 507.799C1327.98 534.155 1493.26 669.49 1765.5 689.799C2295 729.299 2668 597.299 2668 597.299L2639.5 738L-32 711L-3 544.299Z" fill="white"/>
</svg>
